<svg width="360" height="360" fill="none" xmlns="http://www.w3.org/2000/svg"><path fill="#000" d="M0 0h360v360H0z"/><path d="m23.568 27.66 2.386 8.204h.091l2.387-8.205H32l-3.84 11.636h-4.32L20 27.66h3.568ZM33.12 39.295V27.66h8.387v2.546H36.28v2h4.795v2.545H36.28v2h5.204v2.545h-8.363Zm2.433-12.659c-.387 0-.714-.128-.983-.386a1.244 1.244 0 0 1-.404-.932c0-.364.135-.674.404-.932.269-.257.596-.386.983-.386.375 0 .695.129.96.386.269.258.403.569.403.932 0 .364-.134.674-.403.932a1.328 1.328 0 0 1-.96.386Zm3.613 0c-.386 0-.714-.128-.983-.386a1.244 1.244 0 0 1-.403-.932c0-.364.134-.674.403-.932.27-.257.597-.386.983-.386.375 0 .695.129.96.386.27.258.404.569.404.932 0 .364-.135.674-.404.932a1.328 1.328 0 0 1-.96.386ZM43.074 39.295V27.66h5.023c.863 0 1.619.157 2.267.472a3.53 3.53 0 0 1 1.511 1.358c.36.59.54 1.299.54 2.125 0 .833-.186 1.536-.557 2.108-.367.572-.884 1.003-1.551 1.295-.663.292-1.438.438-2.324.438h-3V33h2.364c.37 0 .687-.045.948-.136a1.2 1.2 0 0 0 .608-.45c.144-.204.216-.47.216-.8 0-.334-.072-.605-.216-.813a1.207 1.207 0 0 0-.608-.466 2.61 2.61 0 0 0-.948-.153h-1.114v9.113h-3.16Zm6.818-5.34 2.91 5.34h-3.433l-2.84-5.34h3.363ZM60.034 31.296c-.03-.38-.172-.675-.426-.887-.25-.212-.63-.318-1.142-.318-.326 0-.593.04-.801.12a.964.964 0 0 0-.455.312.772.772 0 0 0-.153.454.747.747 0 0 0 .074.381c.06.11.155.21.284.301.129.087.293.167.494.239.2.072.44.136.716.193l.955.204c.644.137 1.195.317 1.653.54.458.224.833.487 1.125.79.292.3.506.636.642 1.011.14.375.212.784.216 1.228-.004.765-.195 1.413-.574 1.943-.379.53-.92.933-1.625 1.21-.7.277-1.544.415-2.528.415-1.012 0-1.894-.15-2.648-.449-.75-.3-1.333-.76-1.75-1.38-.413-.626-.621-1.425-.625-2.398h3c.019.356.108.655.267.897.159.243.383.426.67.551.292.125.639.188 1.04.188.337 0 .62-.042.847-.125.227-.083.4-.199.517-.347a.818.818 0 0 0 .182-.505.719.719 0 0 0-.176-.466c-.11-.137-.292-.258-.546-.364a5.794 5.794 0 0 0-1.028-.307l-1.16-.25c-1.03-.223-1.842-.596-2.437-1.119-.59-.527-.884-1.244-.88-2.153-.004-.74.193-1.385.59-1.938.402-.557.957-.99 1.665-1.301.712-.31 1.528-.466 2.449-.466.94 0 1.752.157 2.437.472.686.314 1.214.757 1.586 1.33.375.567.564 1.232.568 1.994h-3.023ZM64.1 30.204V27.66h10.113v2.546h-3.5v9.09H67.6v-9.09h-3.5ZM75.402 39.295V27.66h3.16v4.705h.158l3.5-4.705h3.682l-3.932 5.182 4.023 6.454H82.22l-2.614-4.363-1.045 1.363v3h-3.159ZM89.862 39.295h-3.409l3.841-11.636h4.318l3.841 11.636h-3.409l-2.545-8.431h-.091l-2.546 8.431Zm-.636-4.59h6.409v2.363h-6.41v-2.363Z" fill="#fff"/><g clip-path="url(#a)"><circle cx="81" cy="230" r="59.5" stroke="#FEE42A"/><path d="m266.61 219.209 16.914-126.287 101.481 77.715-118.395 48.572Z" stroke="#F83C33"/><path stroke="#000" d="m234.486 276.884 11 46"/></g><path d="M181.088 276.008c-1.872 0-3.216-.384-4.032-1.152-.816-.768-1.224-1.584-1.224-2.448 0-.816.264-1.512.792-2.088.576-.624 1.32-.936 2.232-.936.576 0 1.032.144 1.368.432.384.288.744.576 1.08.864.24.192.456.384.648.576.24.144.504.216.792.216.72 0 1.368-.624 1.944-1.872.624-1.296 1.152-2.952 1.583-4.968a61.534 61.534 0 0 0 1.009-6.408c.24-2.256.36-4.344.36-6.264 0-1.392-.336-2.28-1.008-2.664-.672-.384-1.704-.672-3.096-.864-.192-.048-.456-.192-.792-.432-.288-.288-.432-.6-.432-.936 0-.288.216-.528.648-.72.48-.24.792-.36.936-.36.912 0 1.584.048 2.016.144.432.048 1.056.072 1.872.072h15.048c.96 0 1.656-.024 2.088-.072.48-.096 1.176-.144 2.088-.144.144 0 .432.12.864.36.48.192.72.432.72.72 0 .336-.144.648-.432.936-.288.24-.552.384-.792.432-1.2.24-2.064.648-2.592 1.224-.48.528-.72 1.776-.72 3.744v17.136c0 .96.24 1.608.72 1.944.528.288 1.152.552 1.872.792.384.144.744.312 1.08.504.384.144.576.408.576.792 0 .288-.168.456-.504.504a3.421 3.421 0 0 1-.936.144c-.912 0-1.632-.048-2.16-.144-.48-.048-.936-.096-1.368-.144-.432-.048-1.08-.072-1.944-.072-.816 0-1.464.024-1.944.072-.48.048-.984.096-1.512.144-.48.096-1.176.144-2.088.144-.288 0-.6-.048-.936-.144-.336-.048-.504-.216-.504-.504 0-.384.168-.648.504-.792.384-.192.768-.36 1.152-.504.72-.24 1.392-.504 2.016-.792.624-.336.936-.984.936-1.944V251.24c0-.384-.048-.936-.144-1.656-.096-.72-.432-1.08-1.008-1.08h-6.408c-.624 0-.984.36-1.08 1.08-.096.72-.144 1.272-.144 1.656 0 2.016-.12 4.152-.36 6.408a52.41 52.41 0 0 1-1.008 6.696c-.432 2.16-1.008 4.128-1.728 5.904-.72 1.728-1.584 3.12-2.592 4.176s-2.16 1.584-3.456 1.584Zm32.504-.792c-.24 0-.552-.048-.936-.144-.336-.048-.504-.216-.504-.504 0-.384.168-.648.504-.792.384-.192.768-.36 1.152-.504.72-.24 1.392-.504 2.016-.792.672-.336 1.008-1.008 1.008-2.016v-19.728c0-.96-.288-1.608-.864-1.944-.528-.384-1.152-.672-1.872-.864a11.992 11.992 0 0 1-1.152-.504c-.336-.192-.504-.456-.504-.792 0-.288.168-.456.504-.504.384-.096.696-.144.936-.144.96 0 1.68.024 2.16.072.528.048 1.008.12 1.44.216.48.048 1.128.072 1.944.072.864 0 1.488-.024 1.872-.072.432-.096.888-.168 1.368-.216.48-.048 1.2-.072 2.16-.072.24 0 .528.048.864.144.384.048.576.216.576.504 0 .336-.192.6-.576.792-.336.192-.696.36-1.08.504a6.49 6.49 0 0 0-1.944.864c-.528.336-.792.984-.792 1.944v14.4c0 .192.096.336.288.432.24.048.384.048.432 0l13.752-14.184c.096-.192.168-.312.216-.36.096-.048.144-.192.144-.432 0-.96-.24-1.584-.72-1.872-.48-.336-1.08-.6-1.8-.792a11.992 11.992 0 0 1-1.152-.504c-.336-.192-.504-.456-.504-.792 0-.288.168-.456.504-.504.336-.096.648-.144.936-.144.96 0 1.68.024 2.16.072.48.048.936.12 1.368.216.432.048 1.056.072 1.872.072.864 0 1.512-.024 1.944-.072.432-.096.888-.168 1.368-.216.528-.048 1.272-.072 2.232-.072.288 0 .6.048.936.144.336.048.504.216.504.504 0 .336-.192.6-.576.792-.336.192-.696.36-1.08.504-.72.192-1.392.48-2.016.864-.624.336-.936.984-.936 1.944v19.728c0 .96.336 1.608 1.008 1.944.72.336 1.44.624 2.16.864.384.144.744.312 1.08.504.384.144.576.408.576.792 0 .288-.192.456-.576.504a3.227 3.227 0 0 1-.864.144c-.96 0-1.728-.048-2.304-.144-.528-.048-1.032-.096-1.512-.144-.48-.048-1.152-.072-2.016-.072-.816 0-1.488.024-2.016.072-.48.048-1.008.096-1.584.144-.528.096-1.272.144-2.232.144-.24 0-.552-.048-.936-.144-.336-.048-.504-.216-.504-.504 0-.384.168-.648.504-.792.384-.192.768-.36 1.152-.504.72-.24 1.392-.528 2.016-.864.672-.336 1.008-.984 1.008-1.944v-15.336c0-.192-.024-.312-.072-.36-.048-.096-.12-.096-.216 0l-14.328 14.904c-.144.144-.216.408-.216.792 0 1.008.336 1.68 1.008 2.016.72.288 1.44.552 2.16.792.384.144.744.312 1.08.504.384.144.576.408.576.792 0 .288-.192.456-.576.504a3.227 3.227 0 0 1-.864.144c-.96 0-1.728-.048-2.304-.144-.528-.048-1.032-.096-1.512-.144-.48-.048-1.152-.072-2.016-.072-.816 0-1.488.024-2.016.072-.48.048-1.008.096-1.584.144-.528.096-1.272.144-2.232.144Zm50.135.864c-2.4 0-4.584-.6-6.552-1.8-1.92-1.248-3.456-2.928-4.608-5.04-1.104-2.16-1.656-4.56-1.656-7.2 0-3.12.672-5.952 2.016-8.496 1.392-2.544 3.24-4.56 5.544-6.048 2.304-1.536 4.848-2.304 7.632-2.304 3.12 0 5.856.84 8.208 2.52.576.432.864.888.864 1.368 0 .384-.168.816-.504 1.296-.336.48-.744.888-1.224 1.224-.48.288-.936.432-1.368.432-.24 0-.48-.072-.72-.216-.24-.192-.504-.384-.792-.576a27.989 27.989 0 0 0-3.528-2.304c-1.296-.72-2.376-1.08-3.24-1.08-2.352 0-4.272 1.104-5.76 3.312-1.44 2.16-2.16 5.016-2.16 8.568 0 2.256.48 4.296 1.44 6.12 1.008 1.824 2.328 3.264 3.96 4.32 1.68 1.056 3.528 1.584 5.544 1.584 1.392 0 2.592-.216 3.6-.648 1.008-.48 2.088-1.296 3.24-2.448a.904.904 0 0 1 .36-.216c.144-.096.264-.144.36-.144.528 0 .792.336.792 1.008 0 .288-.096.624-.288 1.008-.144.336-.408.744-.792 1.224-.768.96-1.68 1.8-2.736 2.52a12.247 12.247 0 0 1-3.528 1.512c-1.248.336-2.616.504-4.104.504Zm22.984-.864c-.24 0-.576-.048-1.008-.144-.432-.048-.648-.216-.648-.504 0-.384.168-.648.504-.792.384-.192.768-.36 1.152-.504.72-.24 1.392-.528 2.016-.864.672-.336 1.008-1.032 1.008-2.088v-19.512c0-.432-.048-.912-.144-1.44-.096-.576-.336-.864-.72-.864h-4.32c-.72 0-1.296.144-1.728.432-.432.288-.816.744-1.152 1.368-.288.576-.576 1.392-.864 2.448-.096.384-.312.792-.648 1.224-.288.384-.624.576-1.008.576-.192 0-.36-.096-.504-.288-.144-.192-.216-.456-.216-.792v-.36l.144-.432c.192-.672.384-1.632.576-2.88.192-1.296.288-2.4.288-3.312 0-.384.072-.696.216-.936.192-.24.48-.36.864-.36s.72.048 1.008.144c.288.096.72.216 1.296.36.528.144 1.032.264 1.512.36.528.096 1.224.144 2.088.144h14.832c.624 0 1.248-.024 1.872-.072.624-.048 1.032-.144 1.224-.288a2.55 2.55 0 0 1 .792-.432c.288-.144.48-.216.576-.216.144 0 .312.096.504.288.192.192.288.456.288.792 0 .48-.048 1.008-.144 1.584a10.937 10.937 0 0 0-.144 1.8v1.728l.144 1.584c.048.336-.024.696-.216 1.08-.144.336-.384.504-.72.504-.336 0-.624-.216-.864-.648-.192-.48-.312-.864-.36-1.152-.048-.864-.216-1.608-.504-2.232-.288-.672-.72-1.176-1.296-1.512-.576-.336-1.32-.504-2.232-.504h-4.32c-.48 0-.792.264-.936.792a8.459 8.459 0 0 0-.144 1.512v19.584c0 1.008.336 1.68 1.008 2.016.72.336 1.44.624 2.16.864.384.144.744.312 1.08.504.384.144.576.408.576.792 0 .288-.216.456-.648.504-.432.096-.768.144-1.008.144-.912 0-1.632-.048-2.16-.144-.528-.048-1.032-.096-1.512-.144-.432-.048-1.08-.072-1.944-.072-.816 0-1.464.024-1.944.072-.48.048-.984.096-1.512.144-.48.096-1.2.144-2.16.144Zm28.955.792c-.864 0-1.752-.336-2.664-1.008a9.918 9.918 0 0 1-2.232-2.448c-.576-.96-.864-1.872-.864-2.736 0-1.536.408-2.736 1.224-3.6.816-.864 2.112-1.656 3.888-2.376l7.344-3.024c.96-.384 1.512-.72 1.656-1.008.192-.288.312-.912.36-1.872l.144-4.608c.048-1.248-.312-2.328-1.08-3.24-.72-.912-1.776-1.368-3.168-1.368-.72 0-1.44.12-2.16.36-.72.24-1.32.552-1.8.936-.288.192-.48.48-.576.864a5.032 5.032 0 0 0-.144 1.224v.648c.048.24.072.456.072.648 0 .24-.312.576-.936 1.008-.576.384-1.248.744-2.016 1.08-.72.288-1.32.432-1.8.432-.24 0-.432-.048-.576-.144a.69.69 0 0 1-.216-.504c0-.768.24-1.584.72-2.448.528-.912 1.248-1.752 2.16-2.52a21.825 21.825 0 0 1 3.6-2.664c1.296-.768 2.568-1.368 3.816-1.8 1.248-.432 2.352-.648 3.312-.648 1.728 0 3.144.624 4.248 1.872 1.152 1.2 1.704 2.712 1.656 4.536l-.36 17.28c-.048 1.008.168 1.824.648 2.448.528.624 1.176.936 1.944.936 1.2 0 2.088-.264 2.664-.792.24-.24.432-.36.576-.36.24 0 .432.072.576.216.144.144.216.336.216.576 0 .528-.264 1.056-.792 1.584a9.016 9.016 0 0 1-2.52 1.8c-.864.48-1.68.72-2.448.72-2.208 0-3.96-1.248-5.256-3.744h-.216c-1.584 1.296-3.096 2.232-4.536 2.808-1.44.624-2.928.936-4.464.936Zm3.384-3.456c.96 0 1.776-.144 2.448-.432a6.88 6.88 0 0 0 1.8-1.296c.24-.24.432-.552.576-.936.192-.432.312-1.104.36-2.016l.144-3.528c.048-.528.024-.912-.072-1.152-.096-.24-.288-.36-.576-.36-.096 0-.264.024-.504.072-.24.048-.552.144-.936.288-2.544.912-4.32 1.872-5.328 2.88-.96.96-1.44 1.848-1.44 2.664 0 1.248.36 2.208 1.08 2.88.768.624 1.584.936 2.448.936ZM84.755 203.216c-.288 0-.648-.024-1.08-.072-.384-.048-.576-.24-.576-.576 0-.384.168-.648.504-.792.384-.192.768-.36 1.152-.504.72-.24 1.392-.528 2.016-.864.672-.336 1.008-.984 1.008-1.944v-7.848c0-.384-.048-.648-.144-.792-.096-.192-.24-.24-.432-.144-.96.528-2.208.936-3.744 1.224-1.536.288-3 .432-4.392.432-1.344 0-2.616-.24-3.816-.72-1.2-.48-2.184-1.176-2.952-2.088-.768-.912-1.176-2.016-1.224-3.312l-.072-6.48c0-.96-.12-1.608-.36-1.944-.24-.336-.72-.6-1.44-.792a11.992 11.992 0 0 1-1.152-.504c-.336-.24-.504-.528-.504-.864 0-.336.192-.528.576-.576.432-.048.792-.072 1.08-.072.72 0 1.248.024 1.584.072.336.048.696.12 1.08.216.384.048.984.072 1.8.072.864 0 1.512-.024 1.944-.072.48-.096.912-.168 1.296-.216a16.388 16.388 0 0 1 1.728-.072c.336 0 .696.024 1.08.072.384.048.576.24.576.576 0 .336-.192.6-.576.792-.336.192-.696.36-1.08.504-.72.192-1.344.48-1.872.864-.48.336-.72.984-.72 1.944v5.184c0 1.344.384 2.52 1.152 3.528.768 1.008 1.968 1.512 3.6 1.512 1.104 0 2.184-.072 3.24-.216 1.104-.144 2.016-.504 2.736-1.08.384-.288.648-.552.792-.792.144-.288.216-.528.216-.72v-7.416c0-.96-.24-1.608-.72-1.944-.48-.384-1.08-.672-1.8-.864a11.992 11.992 0 0 1-1.152-.504c-.336-.192-.504-.456-.504-.792s.192-.528.576-.576a8.734 8.734 0 0 1 1.08-.072c.96 0 1.656.024 2.088.072.432.048.84.12 1.224.216.432.048 1.056.072 1.872.072.864 0 1.488-.024 1.872-.072.432-.096.888-.168 1.368-.216.48-.048 1.176-.072 2.088-.072.336 0 .696.024 1.08.072.384.048.576.24.576.576 0 .336-.192.6-.576.792-.336.192-.696.36-1.08.504-.72.192-1.392.48-2.016.864-.624.336-.936.984-.936 1.944v19.728c0 .96.336 1.608 1.008 1.944.72.336 1.44.624 2.16.864.384.144.744.312 1.08.504.384.144.576.408.576.792 0 .336-.216.528-.648.576-.384.048-.72.072-1.008.072-.912 0-1.632-.048-2.16-.144-.528-.048-1.032-.096-1.512-.144-.432-.048-1.08-.072-1.944-.072-.816 0-1.464.024-1.944.072-.48.048-.984.096-1.512.144-.48.096-1.2.144-2.16.144Zm17.801 0c-.24 0-.552-.048-.936-.144-.336-.048-.504-.216-.504-.504 0-.384.168-.648.504-.792.384-.192.768-.36 1.152-.504.72-.24 1.392-.504 2.016-.792.672-.336 1.008-1.008 1.008-2.016v-19.728c0-.96-.288-1.608-.864-1.944-.528-.384-1.152-.672-1.872-.864a11.992 11.992 0 0 1-1.152-.504c-.336-.192-.504-.456-.504-.792 0-.288.168-.456.504-.504.384-.096.696-.144.936-.144.96 0 1.68.024 2.16.072.528.048 1.008.12 1.44.216.48.048 1.128.072 1.944.072.864 0 1.488-.024 1.872-.072.432-.096.888-.168 1.368-.216.48-.048 1.2-.072 2.16-.072.24 0 .528.048.864.144.384.048.576.216.576.504 0 .336-.192.6-.576.792-.336.192-.696.36-1.08.504a6.49 6.49 0 0 0-1.944.864c-.528.336-.792.984-.792 1.944v14.4c0 .192.096.336.288.432.24.048.384.048.432 0l13.752-14.184c.096-.192.168-.312.216-.36.096-.048.144-.192.144-.432 0-.96-.24-1.584-.72-1.872-.48-.336-1.08-.6-1.8-.792a11.992 11.992 0 0 1-1.152-.504c-.336-.192-.504-.456-.504-.792 0-.288.168-.456.504-.504.336-.096.648-.144.936-.144.96 0 1.68.024 2.16.072.48.048.936.12 1.368.216.432.048 1.056.072 1.872.072.864 0 1.512-.024 1.944-.072.432-.096.888-.168 1.368-.216.528-.048 1.272-.072 2.232-.072.288 0 .6.048.936.144.336.048.504.216.504.504 0 .336-.192.6-.576.792-.336.192-.696.36-1.08.504-.72.192-1.392.48-2.016.864-.624.336-.936.984-.936 1.944v19.728c0 .96.336 1.608 1.008 1.944.72.336 1.44.624 2.16.864.384.144.744.312 1.08.504.384.144.576.408.576.792 0 .288-.192.456-.576.504a3.227 3.227 0 0 1-.864.144c-.96 0-1.728-.048-2.304-.144-.528-.048-1.032-.096-1.512-.144-.48-.048-1.152-.072-2.016-.072-.816 0-1.488.024-2.016.072-.48.048-1.008.096-1.584.144-.528.096-1.272.144-2.232.144-.24 0-.552-.048-.936-.144-.336-.048-.504-.216-.504-.504 0-.384.168-.648.504-.792.384-.192.768-.36 1.152-.504.72-.24 1.392-.528 2.016-.864.672-.336 1.008-.984 1.008-1.944v-15.336c0-.192-.024-.312-.072-.36-.048-.096-.12-.096-.216 0l-14.328 14.904c-.144.144-.216.408-.216.792 0 1.008.336 1.68 1.008 2.016.72.288 1.44.552 2.16.792.384.144.744.312 1.08.504.384.144.576.408.576.792 0 .288-.192.456-.576.504a3.227 3.227 0 0 1-.864.144c-.96 0-1.728-.048-2.304-.144-.528-.048-1.032-.096-1.512-.144-.48-.048-1.152-.072-2.016-.072-.816 0-1.488.024-2.016.072-.48.048-1.008.096-1.584.144-.528.096-1.272.144-2.232.144Zm50.135.864c-2.4 0-4.584-.6-6.552-1.8-1.92-1.248-3.456-2.928-4.608-5.04-1.104-2.16-1.656-4.56-1.656-7.2 0-3.12.672-5.952 2.016-8.496 1.392-2.544 3.24-4.56 5.544-6.048 2.304-1.536 4.848-2.304 7.632-2.304 3.12 0 5.856.84 8.208 2.52.576.432.864.888.864 1.368 0 .384-.168.816-.504 1.296-.336.48-.744.888-1.224 1.224-.48.288-.936.432-1.368.432-.24 0-.48-.072-.72-.216-.24-.192-.504-.384-.792-.576a27.989 27.989 0 0 0-3.528-2.304c-1.296-.72-2.376-1.08-3.24-1.08-2.352 0-4.272 1.104-5.76 3.312-1.44 2.16-2.16 5.016-2.16 8.568 0 2.256.48 4.296 1.44 6.12 1.008 1.824 2.328 3.264 3.96 4.32 1.68 1.056 3.528 1.584 5.544 1.584 1.392 0 2.592-.216 3.6-.648 1.008-.48 2.088-1.296 3.24-2.448a.904.904 0 0 1 .36-.216c.144-.096.264-.144.36-.144.528 0 .792.336.792 1.008 0 .288-.096.624-.288 1.008-.144.336-.408.744-.792 1.224-.768.96-1.68 1.8-2.736 2.52a12.247 12.247 0 0 1-3.528 1.512c-1.248.336-2.616.504-4.104.504Zm22.985-.864c-.24 0-.576-.048-1.008-.144-.432-.048-.648-.216-.648-.504 0-.384.168-.648.504-.792.384-.192.768-.36 1.152-.504.72-.24 1.392-.528 2.016-.864.672-.336 1.008-1.032 1.008-2.088v-19.512c0-.432-.048-.912-.144-1.44-.096-.576-.336-.864-.72-.864h-4.32c-.72 0-1.296.144-1.728.432-.432.288-.816.744-1.152 1.368-.288.576-.576 1.392-.864 2.448-.096.384-.312.792-.648 1.224-.288.384-.624.576-1.008.576-.192 0-.36-.096-.504-.288-.144-.192-.216-.456-.216-.792v-.36l.144-.432c.192-.672.384-1.632.576-2.88.192-1.296.288-2.4.288-3.312 0-.384.072-.696.216-.936.192-.24.48-.36.864-.36s.72.048 1.008.144c.288.096.72.216 1.296.36.528.144 1.032.264 1.512.36.528.096 1.224.144 2.088.144h14.832c.624 0 1.248-.024 1.872-.072.624-.048 1.032-.144 1.224-.288a2.55 2.55 0 0 1 .792-.432c.288-.144.48-.216.576-.216.144 0 .312.096.504.288.192.192.288.456.288.792 0 .48-.048 1.008-.144 1.584a10.937 10.937 0 0 0-.144 1.8v1.728l.144 1.584c.048.336-.024.696-.216 1.08-.144.336-.384.504-.72.504-.336 0-.624-.216-.864-.648-.192-.48-.312-.864-.36-1.152-.048-.864-.216-1.608-.504-2.232-.288-.672-.72-1.176-1.296-1.512-.576-.336-1.32-.504-2.232-.504h-4.32c-.48 0-.792.264-.936.792a8.459 8.459 0 0 0-.144 1.512v19.584c0 1.008.336 1.68 1.008 2.016.72.336 1.44.624 2.16.864.384.144.744.312 1.08.504.384.144.576.408.576.792 0 .288-.216.456-.648.504-.432.096-.768.144-1.008.144-.912 0-1.632-.048-2.16-.144-.528-.048-1.032-.096-1.512-.144-.432-.048-1.08-.072-1.944-.072-.816 0-1.464.024-1.944.072-.48.048-.984.096-1.512.144-.48.096-1.2.144-2.16.144Zm37.379.792c-2.688 0-5.112-.624-7.272-1.872a14.303 14.303 0 0 1-5.184-5.112c-1.248-2.208-1.872-4.704-1.872-7.488 0-2.016.384-3.984 1.152-5.904a18.567 18.567 0 0 1 3.384-5.256 16.069 16.069 0 0 1 5.04-3.744c1.92-.96 3.984-1.44 6.192-1.44 2.784 0 5.28.672 7.488 2.016 2.256 1.344 4.032 3.12 5.328 5.328 1.344 2.16 2.016 4.536 2.016 7.128 0 2.784-.624 5.424-1.872 7.92-1.2 2.496-3 4.536-5.4 6.12-2.4 1.536-5.4 2.304-9 2.304Zm1.512-2.16c1.632 0 3.096-.312 4.392-.936 1.296-.624 2.304-1.632 3.024-3.024.576-1.104.96-2.448 1.152-4.032.192-1.584.288-3.072.288-4.464 0-2.304-.432-4.512-1.296-6.624-.816-2.16-1.992-3.912-3.528-5.256-1.488-1.392-3.264-2.088-5.328-2.088-1.296 0-2.472.216-3.528.648-1.008.384-1.944 1.128-2.808 2.232-.96 1.2-1.584 2.664-1.872 4.392a31.482 31.482 0 0 0-.432 5.184c0 2.352.432 4.608 1.296 6.768.864 2.112 2.04 3.84 3.528 5.184 1.488 1.344 3.192 2.016 5.112 2.016Zm20.672 1.368c-.24 0-.552-.048-.936-.144-.336-.048-.504-.216-.504-.504 0-.384.168-.648.504-.792.384-.192.768-.36 1.152-.504.72-.24 1.368-.504 1.944-.792.624-.336.936-.984.936-1.944V181.4c0-1.392-.264-2.544-.792-3.456-.48-.96-1.32-1.56-2.52-1.8-.192-.048-.456-.168-.792-.36-.288-.24-.432-.528-.432-.864 0-.288.216-.504.648-.648.48-.192.792-.288.936-.288.912 0 1.632.048 2.16.144.528.048 1.2.072 2.016.072h12.024c1.392 0 2.4-.048 3.024-.144.624-.144 1.104-.216 1.44-.216.048 0 .144.072.288.216.192.096.288.264.288.504 0 .624-.048 1.512-.144 2.664a35.781 35.781 0 0 0-.144 2.88c0 .624-.048 1.272-.144 1.944-.096.672-.36 1.008-.792 1.008-.48 0-.936-.912-1.368-2.736a5.377 5.377 0 0 0-.792-1.872c-.336-.576-.744-1.032-1.224-1.368-.48-.384-.984-.576-1.512-.576h-1.512a28.287 28.287 0 0 0-2.016-.072h-1.368c-.96 0-1.584.36-1.872 1.08-.24.72-.36 1.272-.36 1.656v19.368c0 .96.36 1.608 1.08 1.944.768.288 1.512.552 2.232.792.384.144.744.312 1.08.504.384.144.576.408.576.792 0 .336-.216.528-.648.576-.384.048-.72.072-1.008.072-.912 0-1.632-.048-2.16-.144-.528-.048-1.032-.096-1.512-.144-.432-.048-1.08-.072-1.944-.072-.816 0-1.488.024-2.016.072-.48.048-1.008.096-1.584.144-.528.096-1.272.144-2.232.144Zm38.918.792c-2.688 0-5.112-.624-7.272-1.872a14.303 14.303 0 0 1-5.184-5.112c-1.248-2.208-1.872-4.704-1.872-7.488 0-2.016.384-3.984 1.152-5.904a18.567 18.567 0 0 1 3.384-5.256 16.069 16.069 0 0 1 5.04-3.744c1.92-.96 3.984-1.44 6.192-1.44 2.784 0 5.28.672 7.488 2.016 2.256 1.344 4.032 3.12 5.328 5.328 1.344 2.16 2.016 4.536 2.016 7.128 0 2.784-.624 5.424-1.872 7.92-1.2 2.496-3 4.536-5.4 6.12-2.4 1.536-5.4 2.304-9 2.304Zm1.512-2.16c1.632 0 3.096-.312 4.392-.936 1.296-.624 2.304-1.632 3.024-3.024.576-1.104.96-2.448 1.152-4.032.192-1.584.288-3.072.288-4.464 0-2.304-.432-4.512-1.296-6.624-.816-2.16-1.992-3.912-3.528-5.256-1.488-1.392-3.264-2.088-5.328-2.088-1.296 0-2.472.216-3.528.648-1.008.384-1.944 1.128-2.808 2.232-.96 1.2-1.584 2.664-1.872 4.392a31.482 31.482 0 0 0-.432 5.184c0 2.352.432 4.608 1.296 6.768.864 2.112 2.04 3.84 3.528 5.184 1.488 1.344 3.192 2.016 5.112 2.016ZM49.304 132.08c-3.36 0-6.6-.576-9.72-1.728-3.12-1.152-5.904-2.784-8.352-4.896a24.252 24.252 0 0 1-5.832-7.704c-1.392-3.024-2.088-6.36-2.088-10.008 0-3.504.744-6.744 2.232-9.72 1.488-2.976 3.528-5.568 6.12-7.776s5.544-3.912 8.856-5.112c3.36-1.248 6.888-1.872 10.584-1.872 1.872 0 3.456.072 4.752.216 1.296.144 2.544.36 3.744.648a65.47 65.47 0 0 1 4.32 1.008c.72.192 1.224.48 1.512.864.336.384.528.912.576 1.584.096 1.104.216 2.304.36 3.6.144 1.248.24 2.808.288 4.68.048.336-.12.624-.504.864-.336.192-.72.24-1.152.144-.384-.096-.648-.408-.792-.936-.48-1.824-1.032-3.384-1.656-4.68a8.14 8.14 0 0 0-2.808-3.312c-1.2-.816-2.664-1.416-4.392-1.8-1.68-.432-3.504-.648-5.472-.648-2.784 0-5.376.576-7.776 1.728a18.559 18.559 0 0 0-6.12 4.608c-1.68 1.92-3 4.104-3.96 6.552a20.723 20.723 0 0 0-1.44 7.632c0 2.928.456 5.808 1.368 8.64.96 2.832 2.304 5.4 4.032 7.704 1.776 2.256 3.864 4.08 6.264 5.472 2.448 1.344 5.16 2.016 8.136 2.016 3.456 0 6.312-.792 8.568-2.376 2.256-1.584 4.176-3.792 5.76-6.624.336-.624.816-.936 1.44-.936.672 0 1.008.384 1.008 1.152 0 .384-.096 1.008-.288 1.872a26.502 26.502 0 0 1-.792 2.664 35.07 35.07 0 0 1-.864 2.448c-.336.672-.624 1.104-.864 1.296-.192.192-.672.408-1.44.648-1.776.72-3.912 1.248-6.408 1.584a52.918 52.918 0 0 1-7.2.504Z" fill="#fff"/><defs><clipPath id="a"><path fill="#fff" transform="translate(21 92)" d="M0 0h339v198H0z"/></clipPath></defs></svg>